<svg width="99" height="63" viewBox="0 0 99 63" fill="none" xmlns="http://www.w3.org/2000/svg">
<path d="M64.494 4.16736H89.0412V10.2427H64.494V4.16736ZM39.8975 28.205C45.3237 25.5565 48.1661 21.5272 48.1661 15.3013C48.1661 2.98745 39.1839 0 28.8113 0H0.265137V61.8075H29.6111C40.6112 61.8075 50.9345 56.41 50.9345 43.8577C50.9345 36.1004 47.3417 30.364 39.8975 28.205ZM13.5785 10.5439H26.0674C30.8784 10.5439 35.1973 11.9121 35.1973 17.6109C35.1973 22.8577 31.8382 24.9665 27.0764 24.9665H13.5785V10.5439ZM27.79 51.3138H13.5662V34.2929H28.073C33.9299 34.2929 37.6335 36.7908 37.6335 43.1172C37.6335 49.3431 33.2162 51.3138 27.79 51.3138ZM98.6386 40.0795C98.6386 26.8368 91.0468 15.8033 77.3151 15.8033C63.9649 15.8033 54.8842 26.0586 54.8842 39.5021C54.8842 53.4351 63.485 63 77.3151 63C87.7861 63 94.5658 58.1925 97.8265 47.9372H87.2078C86.0512 51.7657 81.3509 53.7741 77.6965 53.7741C70.6338 53.7741 66.9425 49.5565 66.9425 42.3891H98.5525C98.5894 41.6485 98.6386 40.8703 98.6386 40.0795ZM66.9425 34.6318C67.324 28.7448 71.1752 25.0669 76.9337 25.0669C82.9874 25.0669 86.0143 28.6946 86.5434 34.6318H66.9425Z" fill="white"/>
</svg>
