<svg width="55" height="57" viewBox="0 0 55 57" fill="none" xmlns="http://www.w3.org/2000/svg">
<path d="M19.6609 1.17996C10.6998 1.84023 3.08187 2.44746 2.72369 2.51857C1.71945 2.6969 0.805887 3.37523 0.376307 4.26801L0 5.05357L0.0362706 23.776L0.089543 42.4985L0.663072 43.6587C0.986107 44.3009 3.17254 47.2998 5.5562 50.3868C10.2702 56.4726 10.6103 56.8123 12.4023 56.9906C12.9225 57.0437 16.8296 56.8653 21.0596 56.6159C25.3078 56.3484 32.1176 55.9376 36.2048 55.7062C53.6612 54.6509 52.7646 54.74 53.7677 53.8834C55.0225 52.8484 54.9329 54.5437 54.9862 31.7885C55.0225 12.4949 55.0043 11.2285 54.7176 10.6394C54.3775 9.9791 53.7677 9.51522 45.8098 3.94634C40.487 0.23413 40.1107 0.037741 37.7259 0.00162343C36.741 -0.0333655 28.6039 0.501626 19.6609 1.17996ZM39.8058 3.62467C40.5585 3.96327 46.0614 7.7827 46.8673 8.51521C47.0826 8.72966 47.154 8.90799 47.0464 9.01521C46.7959 9.22966 12.7412 11.2466 11.7562 11.1033C11.3085 11.0322 10.6454 10.7647 10.2691 10.5141C8.70948 9.46104 4.83872 6.30188 4.83872 6.0705C4.83872 5.46328 4.71291 5.46328 19.8944 4.37523C22.7983 4.17885 27.5656 3.82218 30.4696 3.58968C36.7591 3.08967 38.6418 3.10773 39.8058 3.62467ZM50.6315 13.3877C50.882 13.6371 51.0973 14.1191 51.1687 14.583C51.222 15.0119 51.2583 23.0074 51.222 32.3235C51.1687 48.3145 51.1506 49.3145 50.8457 49.7784C50.6666 50.064 50.3084 50.3676 50.0387 50.4567C49.2872 50.7603 13.6026 52.7773 12.8681 52.5628C12.5281 52.4737 12.0611 52.1881 11.8106 51.9387L11.3799 51.4748L11.3266 34.2343C11.2904 22.1338 11.3266 16.7794 11.4706 16.2974C11.5783 15.9408 11.8469 15.5119 12.0804 15.3696C12.4034 15.1552 14.5184 14.9769 21.7952 14.5491C26.9037 14.2635 34.8073 13.7816 39.3423 13.5141C50.1294 12.8527 50.0942 12.8527 50.6315 13.3877Z" fill="white"/>
<path d="M40.3939 20.2458C38.4797 20.3687 36.7784 20.5436 36.5834 20.6488C35.9984 20.9467 35.6443 21.4372 35.5736 21.9975C35.521 22.5755 35.698 22.6453 37.6111 22.8734L38.4438 22.9786V30.455C38.4438 34.9019 38.3732 37.8439 38.2847 37.7565C38.1961 37.6513 35.6801 33.8699 32.6844 29.3521C29.6899 24.8178 27.2086 21.0873 27.1728 21.053C27.1369 21.0176 25.188 21.1228 22.849 21.2811C19.9777 21.4738 18.4009 21.6487 18.0815 21.8237C17.5671 22.0861 17 23.014 17 23.6275C17 23.9951 17.6735 24.1877 19.0913 24.1877H19.8354V45.6891L18.6306 46.0567C17.6915 46.3368 17.3721 46.5118 17.2129 46.8617C16.9294 47.4574 16.9473 48 17.2309 48C17.3373 48 19.3401 47.8771 21.6431 47.7376C26.1977 47.4751 26.711 47.3522 27.1896 46.4243C27.3319 46.1442 27.4552 45.8463 27.4552 45.7588C27.4552 45.6891 26.8354 45.4787 26.0901 45.3037C25.3281 45.1288 24.566 44.9538 24.4068 44.9184C24.1053 44.8309 24.0874 44.2884 24.0874 36.7588V28.6867L29.4747 37.0389C35.1276 45.7932 35.837 46.7919 36.7056 47.2293C37.7871 47.7896 40.5339 47.4043 41.9158 46.5118L42.3417 46.2494L42.3775 34.3084L42.4302 22.3496L43.3694 22.1747C44.4856 21.9643 45 21.4572 45 20.5813C45 20.021 44.9641 19.9856 44.4329 20.0033C44.1158 20.0177 42.2901 20.1229 40.3939 20.2458Z" fill="white"/>
</svg>
